# xmcd CD database file
#
# Track frame offsets:
#	150
#	14375
#	29719
#	42912
#	56548
#	71125
#	87808
#	105688
#	119837
#	134653
#	149662
#	164055
#	176745
#
# Disc length: 2772 seconds
#
# Revision: 0
# Processed by: cddbd v1.5.2PL0 Copyright (c) Steve Scherf et al.
# Submitted via: CDex 1.51
#
DISCID=ce0ad20d
DTITLE=Annett Louisan - Teilzeithippie
DYEAR=2008
DGENRE=Country
TTITLE0=das schlechte gewissen
TTITLE1=sexy loverboy
TTITLE2=gekommen um zu sagen
TTITLE3=die siezgelegenheit
TTITLE4=ich brauch stoff
TTITLE5=die nächste liebe meines lebens
TTITLE6=wir nicht
TTITLE7=drück die 1
TTITLE8=teilzeithippie
TTITLE9=gedanken lesen
TTITLE10=ich bin dagegen
TTITLE11=je später der abend
TTITLE12=auf dich hab ich gewartet
EXTD=YEAR: 2008
EXTT0=
EXTT1=
EXTT2=
EXTT3=
EXTT4=
EXTT5=
EXTT6=
EXTT7=
EXTT8=
EXTT9=
EXTT10=
EXTT11=
EXTT12=
PLAYORDER=
